#!OML:ASF F:\VICON\USERDATA\INSTALL\rory3\rory3.ASF
:FULLY-SPECIFIED
:DEGREES
626
root 21.4597 17.5453 10.9254 -2.58488 5.03685 3.85699
lowerback 11.608 2.54087 1.11219
upperback 0.901048 3.50617 -0.24214
thorax -5.47606 1.69633 -1.44196
lowerneck -17.4022 4.47373 -8.55923
upperneck 38.0472 9.17086 2.8062
head 15.9153 3.07252 4.37872
rclavicle -2.05245e-014 -1.19271e-014
rhumerus -38.0523 -18.3874 -73.9835
rradius 33.6069
rwrist 7.50074
rhand -16.4784 10.3807
rfingers 7.12502
rthumb 9.73859 -19.3741
lclavicle -2.05245e-014 -1.19271e-014
lhumerus -29.1847 10.343 73.534
lradius 42.2076
lwrist 0.655597
lhand -18.8862 26.7338
lfingers 7.12502
lthumb 7.41495 56.5839
rfemur -8.98049 -2.75439 22.546
rtibia 41.5705
rfoot -21.731 -3.16339
rtoes 7.92109
lfemur -8.18247 -1.18017 -21.5442
ltibia 29.4253
lfoot -15.8128 -25.0202
ltoes -1.0455
627
root 21.5127 17.5384 10.913 -2.52287 5.23024 3.65345
lowerback 11.6249 2.40218 1.48446
upperback 0.764151 3.3753 -0.185142
thorax -5.61556 1.62078 -1.57546
lowerneck -17.37 4.51888 -8.62135
upperneck 38.1561 9.2813 2.77818
head 15.9539 3.10014 4.40012
rclavicle -1.78906e-015 0
rhumerus -37.8814 -17.8749 -74.0948
rradius 33.196
rwrist 7.46154
rhand -16.6227 10.7722
rfingers 7.12502
rthumb 9.5994 -18.9891
lclavicle -1.78906e-015 0
lhumerus -29.4487 10.7304 73.6418
lradius 42.2254
lwrist 0.517394
lhand -18.8862 26.7338
lfingers 7.12502
lthumb 7.41495 56.5839
rfemur -8.65635 -2.17841 22.6849
rtibia 40.8426
rfoot -21.8466 -3.46649
rtoes 8.3213
lfemur -8.50443 -0.385503 -21.314
ltibia 29.6567
lfoot -16.6518 -25.9687
ltoes -4.59801
628
root 21.5777 17.5325 10.9377 -2.4996 5.39946 4.04849
lowerback 11.1676 2.33381 1.32076
upperback 0.821391 3.25088 -0.292638
thorax -5.30691 1.56784 -1.55193
lowerneck -17.4413 4.5057 -8.50034
upperneck 38.2736 9.32858 2.55746
head 16.0558 3.09401 4.30613
rclavicle -6.12754e-014 0
rhumerus -37.6552 -17.3802 -74.2286
rradius 32.9357
rwrist 7.31321
rhand -16.7538 10.5831
rfingers 7.12502
rthumb 9.47286 -19.184
lclavicle -6.12754e-014 0
lhumerus -29.593 11.1628 73.835
lradius 42.0829
lwrist 0.437754
lhand -18.8862 26.7338
lfingers 7.12502
lthumb 7.41495 56.5839
rfemur -8.00595 -2.23158 21.901
rtibia 40.0845
rfoot -22.2696 -3.25143
rtoes 7.52873
lfemur -8.45915 0.0869222 -21.7916
ltibia 29.8998
lfoot -17.1287 -26.7562
ltoes -6.04434
629
root 21.6264 17.5346 10.9296 -2.3872 5.6179 3.71592
lowerback 11.0969 2.22931 1.7091
upperback 0.704589 3.16769 -0.167698
thorax -5.37919 1.51732 -1.62659
lowerneck -17.5412 4.46613 -8.43603
upperneck 38.3493 9.35649 2.33691
head 16.1428 3.07381 4.21704
rclavicle -9.69075e-015 -1.43125e-014
rhumerus -37.5903 -17.0162 -74.2318
rradius 32.9037
rwrist 7.50809
rhand -16.6271 10.4944
rfingers 7.12502
rthumb 9.59517 -19.2671
lclavicle -9.69075e-015 -1.43125e-014
lhumerus -29.7275 11.5633 74.0576
lradius 41.8427
lwrist 0.51551
lhand -18.8862 26.7338
lfingers 7.12502
lthumb 7.41495 56.5839
rfemur -7.7255 -1.90679 22.1239
rtibia 39.3513
rfoot -22.5354 -3.65344
rtoes 7.02328
lfemur -8.79292 0.289984 -21.3119
ltibia 30.0984
lfoot -15.9903 -28.0387
ltoes -4.2451
630
root 21.675 17.5413 10.9188 -2.13037 5.99532 3.57487
lowerback 11.0619 2.05457 1.94192
upperback 0.446996 2.96961 -0.127534
thorax -5.62861 1.40862 -1.69091
lowerneck -17.6062 4.4659 -8.5732
upperneck 38.6027 9.36974 2.5126
head 16.2652 3.06878 4.33661
rclavicle -3.1408e-014 3.18055e-015
rhumerus -37.7105 -16.3438 -74.3285
rradius 32.9171
rwrist 7.54672
rhand -16.6455 10.3624
rfingers 7.12502
rthumb 9.57743 -19.4
lclavicle -3.1408e-014 3.18055e-015
lhumerus -30.0996 12.0211 74.1623
lradius 41.6134
lwrist 0.363258
lhand -18.8862 26.7338
lfingers 7.12502
lthumb 7.41495 56.5839
rfemur -7.63185 -1.70447 22.1309
rtibia 38.6801
rfoot -22.834 -3.91619
rtoes 7.28863
lfemur -9.30016 0.429561 -21.0803
ltibia 30.2945
lfoot -14.901 -29.3241
ltoes -3.57862
631
root 21.7353 17.5458 10.927 -1.9233 6.47149 3.99411
lowerback 10.8501 1.85338 1.70584
upperback 0.307921 2.66508 -0.218386
thorax -5.67478 1.26248 -1.60167
lowerneck -17.6492 4.5115 -8.71887
upperneck 38.8065 9.45337 2.67297
head 16.352 3.0931 4.45865
rclavicle 5.6753e-014 -2.38542e-015
rhumerus -37.6465 -15.7585 -74.3633
rradius 32.7636
rwrist 7.50681
rhand -16.459 10.1675
rfingers 7.12502
rthumb 9.75731 -19.5864
lclavicle 5.6753e-014 -2.38542e-015
lhumerus -30.4765 12.5346 74.2928
lradius 41.3088
lwrist 0.240354
lhand -18.8862 26.7338
lfingers 7.12502
lthumb 7.41495 56.5839
rfemur -7.35532 -2.2067 21.3231
rtibia 38.0861
rfoot -23.0236 -3.52475
rtoes 7.21768
lfemur -9.58837 0.663763 -21.5754
ltibia 30.5684
lfoot -15.4971 -30.1715
ltoes -7.98379
